HIERARCHY
ROOT simHips
{
  OFFSET 0.409278 90.7463 -0.970823
  CHANNELS 6 Xposition Yposition Zposition Zrotation Xrotation Yrotation
  JOINT simSpine
  {
    OFFSET -0.000355721 21.3001 -0.016921
    CHANNELS 3 Zrotation Xrotation Yrotation
    JOINT simLeftArm
    {
      OFFSET 13.5181 21.3012 0
      CHANNELS 3 Zrotation Xrotation Yrotation
      JOINT simLeftForeArm
      {
        OFFSET 24.5783 0 0
        CHANNELS 3 Zrotation Xrotation Yrotation
        JOINT simLeftHand
        {
          OFFSET 24.5783 0 0
          CHANNELS 3 Zrotation Xrotation Yrotation
          End Site
          {
            OFFSET 7.32568 1.52588e-05 0.0169305
          }
        }
      }
    }
    JOINT simHead
    {
      OFFSET 0 27.4458 -0.00489235
      CHANNELS 3 Zrotation Xrotation Yrotation
      End Site
      {
        OFFSET 0 0 0
      }
    }
    JOINT simRightArm
    {
      OFFSET -13.5174 21.3012 0
      CHANNELS 3 Zrotation Xrotation Yrotation
      JOINT simRightForeArm
      {
        OFFSET -24.5783 0 0
        CHANNELS 3 Zrotation Xrotation Yrotation
        JOINT simRightHand
        {
          OFFSET -24.5783 0 0
          CHANNELS 3 Zrotation Xrotation Yrotation
          End Site
          {
            OFFSET -7.32568 1.52588e-05 0.0169305
          }
        }
      }
    }
  }
  JOINT simRightUpLeg
  {
    OFFSET -8.44614 -9.41038 0.835684
    CHANNELS 3 Zrotation Xrotation Yrotation
    JOINT simRightLeg
    {
      OFFSET 0 -40.9639 0
      CHANNELS 3 Zrotation Xrotation Yrotation
      JOINT simRightFoot
      {
        OFFSET 0 -40.9639 0
        CHANNELS 3 Zrotation Xrotation Yrotation
        End Site
        {
          OFFSET 0.50614 -9.67405 14.6709
        }
      }
    }
  }
  JOINT simLeftUpLeg
  {
    OFFSET 8.44614 -9.41038 0.835684
    CHANNELS 3 Zrotation Xrotation Yrotation
    JOINT simLeftLeg
    {
      OFFSET 0 -40.9639 0
      CHANNELS 3 Zrotation Xrotation Yrotation
      JOINT simLeftFoot
      {
        OFFSET 0 -40.9639 0
        CHANNELS 3 Zrotation Xrotation Yrotation
        End Site
        {
          OFFSET -0.50614 -9.67405 14.6709
        }
      }
    }
  }
}
MOTION
Frames:	16
Frame Time:	0.0333333
0.409278 90.7463 -0.970823 0.337614 -3.29812 -37.0966 -0.0386587 6.01254 1.06958 -66.475 3.4499 -22.1448 -0.000119056 9.10538e-06 -126.636 9.91533 2.57067 -4.69585 -21.6411 24.929 29.1357 55.1285 22.946 60.0386 2.77667e-05 1.81172e-05 107.267 -17.8186 -10.5685 5.41209 -18.7221 -11.0388 -17.5161 0.976095 50.2686 -3.89182 14.9835 -30.9342 3.65834 18.3312 -23.7245 18.5294 10.0453 31.592 -14.5751 -19.7746 -4.09363 -9.51494 
0.103009 90.4467 -0.992261 0.145771 -3.52947 -36.8629 -0.103946 6.18531 1.06992 -66.6322 3.71308 -21.9407 -0.000119229 8.8682e-06 -125.534 9.88827 2.64759 -4.7157 -21.8651 25.2108 29.3554 55.331 23.2857 59.4006 2.7777e-05 1.80841e-05 107.235 -17.6341 -10.4269 5.72224 -18.7761 -10.8483 -17.5032 1.39754 51.159 -4.28139 14.9707 -31.6481 3.77337 18.5881 -23.9501 18.5153 10.4256 32.6288 -14.861 -20 -4.59351 -9.95649 
-0.278055 90.16 -0.93781 0.0444888 -3.5767 -36.3272 -0.153896 6.26514 1.07043 -66.8011 3.85841 -21.7765 -0.000119289 8.78305e-06 -125.142 9.64414 2.5911 -4.69898 -22.0321 25.2721 29.4303 55.2394 23.4841 59.1085 2.77531e-05 1.81608e-05 107.31 -17.548 -10.2253 5.92464 -18.7215 -10.6356 -17.559 1.89432 51.912 -4.9926 15.0934 -32.3695 3.92984 18.8396 -24.4065 18.4559 10.8461 33.5844 -15.2773 -20.2239 -5.05731 -10.527 
-0.728964 89.8882 -0.826105 0.0104065 -3.42869 -35.5253 -0.156268 6.23419 1.05387 -66.9257 4.03979 -21.663 -0.000119263 8.81985e-06 -125.311 9.33256 2.4559 -4.62503 -22.0328 24.9981 29.2215 54.8575 23.4443 59.1327 2.7698e-05 1.83367e-05 107.483 -17.5824 -9.91638 6.07448 -18.5237 -10.4216 -17.5962 2.55699 52.52 -6.10337 15.3253 -33.0937 4.12007 19.1617 -25.0816 18.4604 11.2753 34.4511 -15.6927 -20.4333 -5.40819 -11.3695 
-1.23628 89.6309 -0.655648 0.0255161 -3.06834 -34.3328 -0.131616 6.16748 1.02036 -66.9841 4.51044 -21.8088 -0.000119255 8.83105e-06 -125.363 9.34428 2.53136 -4.40189 -21.7518 24.442 28.6229 54.3975 23.1063 59.1873 2.76068e-05 1.86238e-05 107.766 -17.7413 -9.46705 6.29278 -18.1209 -10.184 -17.5584 3.43377 52.9533 -7.82231 15.7565 -33.802 4.37008 19.5895 -26.0605 18.5934 11.666 35.2752 -16.0791 -20.5487 -5.58679 -12.5631 
-1.78408 89.3444 -0.421612 0.0579624 -2.47653 -32.5196 -0.123824 6.12172 0.971445 -66.9859 5.25566 -22.458 -0.000119273 8.80559e-06 -125.246 9.38511 2.55071 -4.13155 -20.9496 23.7145 27.3983 53.9321 22.3978 59.2116 2.74324e-05 1.91596e-05 108.295 -18.0671 -8.80687 6.57995 -17.5547 -9.8872 -17.5585 4.72559 53.2856 -10.3941 16.4344 -34.5397 4.7116 20.092 -27.5668 18.7726 12.0751 36.2514 -16.5111 -20.5153 -5.62294 -14.162 
-2.37047 88.9337 -0.130763 0.066296 -1.65366 -29.9314 -0.134993 6.11517 0.915028 -66.9128 6.33282 -23.6032 -0.000119333 8.72089e-06 -124.857 9.14355 2.0001 -3.95197 -19.2373 22.8672 25.1452 53.4813 21.2523 59.2554 2.71375e-05 2.00295e-05 109.157 -18.6654 -7.86873 6.89971 -16.9665 -9.55557 -17.776 6.76203 53.7288 -12.3366 16.1887 -35.9254 3.21216 20.6037 -29.8445 18.8447 12.678 37.653 -17.1408 -20.3697 -5.63563 -16.233 
-3.01664 88.3179 0.188022 0.0170179 -0.674488 -26.7024 -0.177697 6.16415 0.889939 -66.7553 7.81147 -24.9507 -0.000119454 8.54333e-06 -124.049 8.69759 0.80433 -3.94118 -16.4117 21.759 21.6908 52.9329 19.6617 59.5861 2.66733e-05 2.13187e-05 110.444 -19.7091 -6.56371 7.15218 -16.4575 -9.27082 -18.2738 9.63062 54.4783 -14.4367 15.4584 -37.841 0.881439 21.0692 -32.8536 18.7286 13.6213 39.5404 -18.1393 -20.2357 -5.73677 -18.6311 
-3.72942 87.494 0.507375 -0.115484 0.276409 -23.3213 -0.306376 6.34326 0.95919 -66.6613 9.56388 -26.0186 -0.000119657 8.23628e-06 -122.668 8.13167 -0.874315 -4.19899 -12.7488 20.1968 17.3918 52.1556 17.7228 60.3551 2.59238e-05 2.32307e-05 112.372 -21.2962 -4.63698 7.29658 -16.0548 -9.05887 -18.9567 12.985 55.5644 -17.074 14.8112 -40.0172 -1.12079 21.5017 -36.1645 18.397 14.7936 41.8324 -19.4205 -20.1961 -6.04414 -20.7186 
-4.4842 86.5446 0.845359 -0.352826 0.992631 -20.3806 -0.524058 6.72325 1.16708 -66.9416 11.2834 -25.8627 -0.000119954 7.75286e-06 -120.537 7.50352 -3.29564 -5.27179 -8.8958 18.2077 13.0749 51.1858 15.8035 61.3231 2.47956e-05 2.58021e-05 115.008 -23.208 -1.84141 7.62673 -15.7141 -8.80037 -19.713 16.1283 56.8444 -19.8452 14.6319 -42.1716 -2.06526 22.119 -39.1774 17.5051 15.323 44.6269 -20.3461 -20.1398 -6.81865 -21.1404 
-5.20428 85.6041 1.2785 -0.677527 1.3302 -18.3458 -0.846701 7.30061 1.52987 -67.9519 12.303 -23.3648 -0.000120363 7.01353e-06 -117.364 6.65392 -7.24404 -7.74311 -5.67996 16.2132 9.85018 50.211 14.5743 62.4823 2.35022e-05 2.84104e-05 117.741 -24.9351 1.59563 8.6138 -15.3452 -8.34563 -20.4204 18.1336 58.1404 -22.3174 15.546 -43.9188 -1.27257 22.5276 -41.446 16.3654 16.1092 47.7391 -21.6583 -20.1919 -8.37908 -19.0541 
-5.78443 84.9949 2.2822 -1.0092 1.1196 -18.4621 -1.36006 7.88605 2.02561 -69.849 11.5596 -17.9557 -0.00012089 5.88408e-06 -112.682 4.40312 -13.4475 -11.7798 -3.94512 14.6705 8.75759 49.0568 14.8635 64.2038 2.25462e-05 3.01584e-05 119.611 -26.3021 4.96472 10.5968 -15.1552 -7.11231 -20.7249 17.7983 58.648 -22.9119 17.6384 -44.5963 1.40741 22.8337 -41.7874 15.4731 17.0837 51.064 -22.7945 -20.2722 -11.2036 -15.0309 
-6.09442 84.7176 4.15561 -1.37121 0.580746 -21.067 -1.99963 8.0736 2.55306 -72.1767 8.31048 -10.4581 -0.000121483 4.19355e-06 -105.952 -1.01341 -21.8388 -17.1449 -4.22223 13.4636 10.1799 46.9685 16.9125 66.3725 2.22557e-05 3.06638e-05 120.159 -27.7893 7.24839 13.6234 -15.4602 -5.13495 -20.6539 14.9805 58.1896 -21.2694 20.9283 -43.8981 6.01456 24.1256 -42.2976 15.9562 19.2008 56.9637 -25.4855 -18.7387 -9.1447 -10.2205 
-6.11225 84.6548 6.9896 -1.78642 -0.229826 -25.8115 -2.73626 7.52518 2.89042 -73.9759 3.10679 -2.38662 -0.000121958 1.845e-06 -96.9448 -9.56766 -31.4083 -23.7016 -6.18124 12.013 13.5178 43.4365 19.3217 68.3552 2.26136e-05 3.00395e-05 119.483 -29.8766 7.16472 17.047 -16.7317 -2.44709 -20.2875 10.5645 56.5695 -14.7394 22.3078 -42.984 8.19899 27.7607 -43.2947 18.0695 22.2824 65.6764 -30.111 -19.711 -2.41751 -7.08795 
-6.08702 85.0249 10.7007 -2.6775 -1.14573 -32.1033 -3.40203 6.34757 2.85666 -74.7294 -2.56499 5.8182 -0.00012203 -1.10731e-06 -85.8385 -19.0759 -40.7613 -31.9618 -8.69461 10.0636 17.7324 38.9196 20.1958 69.3794 2.33636e-05 2.86724e-05 118.019 -32.2489 4.49163 20.1223 -18.2513 1.29323 -19.6865 5.08373 52.3493 -4.01163 21.6623 -41.5956 7.51135 32.7406 -42.4853 21.1599 28.3821 73.9829 -36.9216 -20.185 4.03041 -6.61976 
-6.0002 85.7735 15.0561 -4.38704 -1.67815 -39.6201 -3.60424 4.80504 2.39477 -74.7398 -7.56099 13.7636 -0.000121443 -4.3286e-06 -73.5201 -27.7562 -49.4999 -41.2351 -10.4077 7.58971 22.164 34.9629 18.3978 69.8859 2.47122e-05 2.598e-05 115.192 -33.4388 0.203495 21.8144 -19.8058 4.90048 -18.955 -0.377899 46.3877 7.57287 21.1175 -36.9902 6.34281 37.7972 -38.8182 23.868 40.0209 79.6433 -48.7863 -19.7148 7.95062 -6.56274 
